<?xml version="1.0" encoding="UTF-8" standalone="no"?>
<svg
   xmlns:dc="http://purl.org/dc/elements/1.1/"
   xmlns:cc="http://creativecommons.org/ns#"
   xmlns:rdf="http://www.w3.org/1999/02/22-rdf-syntax-ns#"
   xmlns:svg="http://www.w3.org/2000/svg"
   xmlns="http://www.w3.org/2000/svg"
   xmlns:xlink="http://www.w3.org/1999/xlink"
   width="408"
   height="280"
   viewBox="0 0 408 280"
   version="1.1"
   id="svg222">
  <metadata
     id="metadata226">
    <rdf:RDF>
      <cc:Work
         rdf:about="">
        <dc:format>image/svg+xml</dc:format>
        <dc:type
           rdf:resource="http://purl.org/dc/dcmitype/StillImage" />
        <dc:title></dc:title>
      </cc:Work>
    </rdf:RDF>
  </metadata>
  <desc
     id="desc119">Created with getavataaars.com</desc>
  <defs
     id="defs124">
    <path
       d="M 124,144.61095 V 163 h 4 v 0 c 39.7645,0 72,32.2355 72,72 v 9 H 0 v -9 c 0,-39.7645 32.235498,-72 72,-72 v 0 h 4 V 144.61095 C 58.762634,136.42237 46.372225,119.68701 44.305139,99.881238 38.480311,99.057787 34,94.05211 34,88 V 74 C 34,68.054007 38.324573,63.118073 44,62.165917 V 56 56 C 44,25.072054 69.072054,0 100,0 v 0 0 c 30.92795,0 56,25.072054 56,56 v 6.165917 c 5.67543,0.952156 10,5.88809 10,11.834083 v 14 c 0,6.05211 -4.48031,11.057787 -10.30514,11.881238 C 153.62778,119.68701 141.23736,136.42237 124,144.61095 Z"
       id="path-5" />
    <mask
       id="mask-6-0"
       fill="#ffffff">
      <use
         height="100%"
         width="100%"
         y="0"
         x="0"
         xlink:href="#path-5"
         id="use10" />
    </mask>
    <mask
       id="mask136"
       fill="#ffffff">
      <use
         height="100%"
         width="100%"
         y="0"
         x="0"
         xlink:href="#path-5"
         id="use134" />
    </mask>
    <mask
       id="react-mask-31-6"
       fill="#ffffff">
      <use
         height="100%"
         width="100%"
         y="0"
         x="0"
         xlink:href="#react-path-30-0"
         id="use24" />
    </mask>
    <mask
       id="mask142"
       fill="#ffffff">
      <use
         height="100%"
         width="100%"
         y="0"
         x="0"
         xlink:href="#react-path-30-0"
         id="use140" />
    </mask>
    <mask
       id="mask146"
       fill="#ffffff">
      <use
         height="100%"
         width="100%"
         y="0"
         x="0"
         xlink:href="#react-path-30-0"
         id="use144" />
    </mask>
    <mask
       id="react-mask-57"
       fill="#ffffff">
      <use
         height="100%"
         width="100%"
         y="0"
         x="0"
         xlink:href="#react-path-56"
         id="use36" />
    </mask>
    <mask
       id="mask152"
       fill="#ffffff">
      <use
         height="100%"
         width="100%"
         y="0"
         x="0"
         xlink:href="#react-path-56"
         id="use150" />
    </mask>
    <mask
       id="react-mask-24-2"
       fill="#ffffff">
      <use
         height="100%"
         width="100%"
         y="0"
         x="0"
         xlink:href="#react-path-26-4"
         id="use75" />
    </mask>
    <mask
       id="react-mask-23-3"
       fill="#ffffff">
      <use
         height="100%"
         width="100%"
         y="0"
         x="0"
         xlink:href="#react-path-25-7"
         id="use80" />
    </mask>
    <filter
       x="-0.0080000004"
       y="-0.024"
       width="1.015"
       height="1.098"
       filterUnits="objectBoundingBox"
       id="react-filter-27-7">
      <feOffset
         dx="0"
         dy="2"
         in="SourceAlpha"
         result="shadowOffsetOuter1"
         id="feOffset90" />
      <feColorMatrix
         values="0 0 0 0 0   0 0 0 0 0   0 0 0 0 0  0 0 0 0.2 0"
         type="matrix"
         in="shadowOffsetOuter1"
         result="shadowMatrixOuter1"
         id="feColorMatrix92" />
      <feMerge
         id="feMerge98">
        <feMergeNode
           in="shadowMatrixOuter1"
           id="feMergeNode94" />
        <feMergeNode
           in="SourceGraphic"
           id="feMergeNode96" />
      </feMerge>
    </filter>
    <path
       d="M 108,13.070886 C 90.081301,15.075938 76.279842,20.551834 76.004203,34.644968 50.146433,45.568093 32,71.164626 32,100.99949 v 0 V 110 h 200 v -9.00051 C 232,71.164626 213.85357,45.568093 187.9958,34.644983 187.72016,20.551834 173.9187,15.075938 156,13.070886 V 32 32 c 0,13.254834 -10.74517,24 -24,24 v 0 C 118.74517,56 108,45.254834 108,32 Z"
       id="react-path-30-0" />
    <path
       d="M 35.117844,15.128077 C 36.175712,24.619802 44.225987,32 54,32 63.804206,32 71.874008,24.574136 72.891759,15.040055 72.973669,14.272746 72.116743,13 71.042767,13 c -14.894013,0 -26.304846,0 -33.955943,0 -1.080207,0 -2.074818,1.178444 -1.96898,2.128077 z"
       id="react-path-56" />
    <rect
       id="react-path-26-4"
       x="0"
       y="0"
       width="264"
       height="280" />
    <path
       d="m 94.251927,52.022115 c 0.123008,-0.0544 -0.182256,-0.0753 -0.915793,-0.0626 0.89153,-0.0018 1.196794,0.019 0.915793,0.0626 M 86.116978,36.301592 c -0.0021,-0.0196 0.01678,0.1511 0,0 M 193.76506,70.765666 c -0.26411,-3.316932 -0.73211,-6.61378 -1.51838,-9.854584 -0.62445,-2.575733 -1.47767,-5.033548 -2.48667,-7.491039 -0.60931,-1.484666 -2.03247,-3.523937 -2.19969,-5.12555 -0.16485,-1.57764 1.0662,-3.325355 1.32896,-5.162156 0.25503,-1.787561 0.21163,-3.667124 -0.1551,-5.438487 -0.83304,-4.022821 -3.59391,-7.763805 -7.85701,-8.812434 -0.95181,-0.234217 -2.96375,0.05442 -3.63631,-0.499856 -0.77113,-0.635592 -1.3081,-2.800879 -2.00622,-3.669391 -1.99042,-2.475957 -5.0948,-4.070443 -8.36875,-3.514543 -2.41097,0.40915 -1.0265,0.90771 -2.83389,-0.511194 -1.00496,-0.788821 -1.75591,-1.99327 -2.73193,-2.847204 -1.46724,-1.282845 -3.15048,-2.381039 -4.89192,-3.28227 -4.55683,-2.358038 -9.7539,-4.072062 -14.84399,-4.9075311 -9.28523,-1.5241886 -19.19523,-0.1953423 -28.19549,2.2193871 -4.47843,1.201534 -8.98714,2.72637 -13.14662,4.742964 -1.783496,0.864625 -2.81302,1.581852 -4.672555,1.808294 -2.92876,0.35667 -5.409037,0.338852 -8.183368,1.58088 -8.5363,3.821972 -12.381201,12.68883 -9.059473,21.174074 0.668181,1.706573 1.572883,3.205169 2.820088,4.58358 1.520734,1.680657 2.070823,1.349903 0.76104,3.282594 -1.958787,2.889965 -3.610062,5.971709 -4.954499,9.171696 -3.528979,8.401665 -4.119441,17.864268 -3.889649,26.824424 0.08041,3.136816 0.214989,6.312182 0.709564,9.418871 0.213643,1.34472 0.27353,3.873156 1.282194,4.870924 0.511734,0.506012 1.240812,0.788175 1.968208,0.586675 1.70948,-0.473616 1.12171,-1.73508 1.16141,-2.906163 0.199849,-5.883595 -0.06998,-11.088512 1.329297,-16.901162 1.033561,-4.294616 2.756163,-8.194984 4.98848,-12.035098 2.838593,-4.884206 5.90294,-9.173639 9.806719,-13.355844 0.917824,-0.983515 1.118346,-1.40044 2.349064,-1.471709 0.931954,-0.05378 2.295232,0.584407 3.20128,0.805342 1.99782,0.486898 3.99933,0.968289 6.03348,1.296127 3.73993,0.602873 7.44319,0.643366 11.21676,0.525124 7.42637,-0.232272 14.8847,-0.753185 22.08497,-2.623354 4.7819,-1.241703 9.02146,-3.470809 13.60183,-5.104817 0.0817,-0.02915 1.22971,-0.847131 1.4309,-0.813764 0.28093,0.04633 1.97696,1.825787 2.26327,2.049961 2.22559,1.745447 4.66684,2.478224 7.07041,3.829746 2.96341,1.666404 0.0935,-0.718199 1.72798,1.35865 0.47641,0.604816 0.72033,1.726334 1.10253,2.41149 1.21592,2.182781 2.90757,4.101218 4.93095,5.623463 1.95509,1.470736 4.89327,2.181161 5.89016,4.095386 0.76877,1.476892 1.02784,3.484091 1.64824,5.06076 1.62739,4.135232 3.77661,7.991543 5.92582,11.886404 1.73135,3.138759 3.6252,5.880679 3.81765,9.467463 0.0669,1.248506 -1.12104,8.737605 1.77273,6.459903 0.42897,-0.337556 1.35386,-4.155965 1.54395,-4.803867 0.77114,-2.632748 1.04534,-5.381147 1.39457,-8.086136 0.69442,-5.379528 0.92253,-10.497951 0.46901,-15.916029"
       id="react-path-25-7" />
    <filter
       x="-0.0080000004"
       y="-0.02"
       width="1.015"
       height="1.08"
       filterUnits="objectBoundingBox"
       id="react-filter-22">
      <feOffset
         dx="0"
         dy="2"
         in="SourceAlpha"
         result="shadowOffsetOuter1"
         id="feOffset62" />
      <feColorMatrix
         values="0 0 0 0 0   0 0 0 0 0   0 0 0 0 0  0 0 0 0.16 0"
         type="matrix"
         in="shadowOffsetOuter1"
         result="shadowMatrixOuter1"
         id="feColorMatrix64" />
      <feMerge
         id="feMerge70">
        <feMergeNode
           in="shadowMatrixOuter1"
           id="feMergeNode66" />
        <feMergeNode
           in="SourceGraphic"
           id="feMergeNode68" />
      </feMerge>
    </filter>
    <filter
       x="-0.0080000004"
       y="-0.024"
       width="1.015"
       height="1.098"
       filterUnits="objectBoundingBox"
       id="filter241">
      <feOffset
         dx="0"
         dy="2"
         in="SourceAlpha"
         result="shadowOffsetOuter1"
         id="feOffset231" />
      <feColorMatrix
         values="0 0 0 0 0   0 0 0 0 0   0 0 0 0 0  0 0 0 0.2 0"
         type="matrix"
         in="shadowOffsetOuter1"
         result="shadowMatrixOuter1"
         id="feColorMatrix233" />
      <feMerge
         id="feMerge239">
        <feMergeNode
           in="shadowMatrixOuter1"
           id="feMergeNode235" />
        <feMergeNode
           in="SourceGraphic"
           id="feMergeNode237" />
      </feMerge>
    </filter>
  </defs>
  <g
     id="g220"
     stroke="none"
     stroke-width="1"
     fill="none"
     fill-rule="evenodd">
    <g
       id="g217"
       transform="matrix(1,0,0,0.99630996,-28,-3.9667888)">
      <g
         id="Mask" />
      <g
         mask="url(#mask-4)"
         fill-rule="evenodd"
         stroke-width="1"
         id="Avataaar">
        <g
           transform="translate(32,36)"
           id="Body">
          <mask
             fill="#ffffff"
             id="mask-6">
            <use
               height="100%"
               width="100%"
               y="0"
               x="0"
               id="use127"
               xlink:href="#path-5" />
          </mask>
          <use
             height="100%"
             width="100%"
             y="0"
             x="0"
             id="use130"
             xlink:href="#path-5"
             fill="#d0c6ac" />
          <g
             fill="#edb98a"
             mask="url(#mask-6)"
             id="Skin/ðŸ‘¶ðŸ½-03-Brown">
            <g
               id="Color"
               transform="translate(-32)">
              <rect
                 id="rect132"
                 height="244"
                 width="264"
                 y="0"
                 x="0" />
            </g>
          </g>
          <path
             mask="url(#mask-6)"
             fill="#000000"
             fill-opacity="0.1"
             id="Neck-Shadow"
             d="m 156,79 v 23 c 0,30.92795 -25.07205,56 -56,56 -30.927946,0 -56,-25.07205 -56,-56 V 79 94 c 0,30.92795 25.072054,56 56,56 30.92795,0 56,-25.07205 56,-56 z" />
        </g>
        <g
           transform="translate(0,170)"
           id="Clothing/Hoodie">
          <defs
             id="defs139">
            <path
               id="react-path-30"
               d="M 108,13.070886 C 90.081301,15.075938 76.279842,20.551834 76.004203,34.644968 50.146433,45.568093 32,71.164626 32,100.99949 v 0 V 110 h 200 v -9.00051 C 232,71.164626 213.85357,45.568093 187.9958,34.644983 187.72016,20.551834 173.9187,15.075938 156,13.070886 V 32 32 c 0,13.254834 -10.74517,24 -24,24 v 0 C 118.74517,56 108,45.254834 108,32 Z" />
          </defs>
          <mask
             fill="#ffffff"
             id="react-mask-31">
            <use
               height="100%"
               width="100%"
               y="0"
               x="0"
               id="use141"
               xlink:href="#react-path-30" />
          </mask>
          <use
             height="100%"
             width="100%"
             y="0"
             x="0"
             xlink:href="#react-path-30"
             fill-rule="evenodd"
             fill="#b7c1db"
             id="Hoodie" />
          <g
             fill="#25557c"
             fill-rule="evenodd"
             mask="url(#react-mask-31)"
             id="Color/Palette/Gray-01">
            <rect
               height="110"
               width="264"
               y="0"
               x="0"
               id="ðŸ–Color" />
          </g>
          <path
             mask="url(#react-mask-31)"
             fill-rule="evenodd"
             fill="#f4f4f4"
             id="Straps"
             d="M 102,61.739053 V 110 H 95 V 58.150262 c 2.203754,1.309796 4.546769,2.510526 7,3.588791 z m 67,-3.588791 V 98.5 c 0,1.933 -1.567,3.5 -3.5,3.5 -1.933,0 -3.5,-1.567 -3.5,-3.5 V 61.739053 c 2.45323,-1.078265 4.79625,-2.278995 7,-3.588791 z" />
          <path
             mask="url(#react-mask-31)"
             fill-rule="evenodd"
             fill="#000000"
             fill-opacity="0.16"
             id="Shadow"
             d="M 90.960133,12.724354 C 75.90931,15.571178 65.5,21.242885 65.5,32.307692 65.5,52.020009 98.537681,68 132,68 165.46232,68 198.5,52.020009 198.5,32.307692 198.5,21.242885 188.09069,15.571178 173.03987,12.724354 182.12492,16.07446 188,21.706055 188,31.076923 188,51.468975 160.17879,68 132,68 103.82121,68 76,51.468975 76,31.076923 76,21.706055 81.875079,16.07446 90.960133,12.724354 Z" />
        </g>
        <g
           fill="#000000"
           transform="translate(76,82)"
           id="Face">
          <g
             fill-opacity="0.7"
             transform="translate(2,52)"
             id="Mouth/Default">
            <path
               id="Mouth"
               d="m 40,15 c 0,7.731987 6.268014,14 14,14 v 0 c 7.731986,0 14,-6.268013 14,-14" />
          </g>
          <g
             fill-opacity="0.16"
             transform="translate(28,40)"
             id="Nose/Default">
            <path
               id="Nose"
               d="m 16,8 c 0,4.418278 5.372583,8 12,8 v 0 c 6.627417,0 12,-3.581722 12,-8" />
          </g>
          <g
             fill-opacity="0.6"
             transform="translate(0,8)"
             id="Eyes/Default-ðŸ˜€">
            <circle
               r="6"
               cy="22"
               cx="30"
               id="Eye" />
            <circle
               r="6"
               cy="22"
               cx="82"
               id="circle155" />
          </g>
          <g
             fill-opacity="0.6"
             id="Eyebrow/Outline/Default">
            <g
               transform="translate(12,6)"
               id="I-Browse">
              <path
                 fill-rule="nonzero"
                 id="Eyebrow"
                 d="M 3.6302454,11.158577 C 7.545155,5.6498667 18.27792,2.5608372 27.523027,4.8311805 28.595725,5.0946055 29.678867,4.4385601 29.942292,3.3658621 30.205717,2.2931641 29.549671,1.2100224 28.476973,0.94659732 17.740363,-1.6900179 5.3120996,1.8869983 0.36975464,8.8414233 -0.27010963,9.7417829 -0.05893639,10.990381 0.84142326,11.630245 1.7417829,12.27011 2.9903811,12.058936 3.6302454,11.158577 Z" />
              <path
                 transform="matrix(-1,0,0,1,146.00031,0)"
                 fill-rule="nonzero"
                 id="path159"
                 d="M 61.630245,11.158577 C 65.545155,5.6498667 76.27792,2.5608372 85.523027,4.8311805 86.595725,5.0946055 87.678866,4.4385601 87.942292,3.3658621 88.205717,2.2931641 87.549671,1.2100224 86.476973,0.94659732 75.740363,-1.6900179 63.3121,1.8869983 58.369755,8.8414233 c -0.639865,0.9003596 -0.428691,2.1489577 0.471668,2.7888217 0.90036,0.639865 2.148958,0.428691 2.788822,-0.471668 z" />
            </g>
          </g>
        </g>
        <g
           fill-rule="evenodd"
           stroke-width="1"
           id="Top">
          <defs
             id="defs177">
            <rect
               height="280"
               width="264"
               y="0"
               x="0"
               id="react-path-26" />
            <path
               id="react-path-25"
               d="m 94.251927,52.022115 c 0.123008,-0.0544 -0.182256,-0.0753 -0.915793,-0.0626 0.89153,-0.0018 1.196794,0.019 0.915793,0.0626 M 86.116978,36.301592 c -0.0021,-0.0196 0.01678,0.1511 0,0 M 193.76506,70.765666 c -0.26411,-3.316932 -0.73211,-6.61378 -1.51838,-9.854584 -0.62445,-2.575733 -1.47767,-5.033548 -2.48667,-7.491039 -0.60931,-1.484666 -2.03247,-3.523937 -2.19969,-5.12555 -0.16485,-1.57764 1.0662,-3.325355 1.32896,-5.162156 0.25503,-1.787561 0.21163,-3.667124 -0.1551,-5.438487 -0.83304,-4.022821 -3.59391,-7.763805 -7.85701,-8.812434 -0.95181,-0.234217 -2.96375,0.05442 -3.63631,-0.499856 -0.77113,-0.635592 -1.3081,-2.800879 -2.00622,-3.669391 -1.99042,-2.475957 -5.0948,-4.070443 -8.36875,-3.514543 -2.41097,0.40915 -1.0265,0.90771 -2.83389,-0.511194 -1.00496,-0.788821 -1.75591,-1.99327 -2.73193,-2.847204 -1.46724,-1.282845 -3.15048,-2.381039 -4.89192,-3.28227 -4.55683,-2.358038 -9.7539,-4.072062 -14.84399,-4.9075311 -9.28523,-1.5241886 -19.19523,-0.1953423 -28.19549,2.2193871 -4.47843,1.201534 -8.98714,2.72637 -13.14662,4.742964 -1.783496,0.864625 -2.81302,1.581852 -4.672555,1.808294 -2.92876,0.35667 -5.409037,0.338852 -8.183368,1.58088 -8.5363,3.821972 -12.381201,12.68883 -9.059473,21.174074 0.668181,1.706573 1.572883,3.205169 2.820088,4.58358 1.520734,1.680657 2.070823,1.349903 0.76104,3.282594 -1.958787,2.889965 -3.610062,5.971709 -4.954499,9.171696 -3.528979,8.401665 -4.119441,17.864268 -3.889649,26.824424 0.08041,3.136816 0.214989,6.312182 0.709564,9.418871 0.213643,1.34472 0.27353,3.873156 1.282194,4.870924 0.511734,0.506012 1.240812,0.788175 1.968208,0.586675 1.70948,-0.473616 1.12171,-1.73508 1.16141,-2.906163 0.199849,-5.883595 -0.06998,-11.088512 1.329297,-16.901162 1.033561,-4.294616 2.756163,-8.194984 4.98848,-12.035098 2.838593,-4.884206 5.90294,-9.173639 9.806719,-13.355844 0.917824,-0.983515 1.118346,-1.40044 2.349064,-1.471709 0.931954,-0.05378 2.295232,0.584407 3.20128,0.805342 1.99782,0.486898 3.99933,0.968289 6.03348,1.296127 3.73993,0.602873 7.44319,0.643366 11.21676,0.525124 7.42637,-0.232272 14.8847,-0.753185 22.08497,-2.623354 4.7819,-1.241703 9.02146,-3.470809 13.60183,-5.104817 0.0817,-0.02915 1.22971,-0.847131 1.4309,-0.813764 0.28093,0.04633 1.97696,1.825787 2.26327,2.049961 2.22559,1.745447 4.66684,2.478224 7.07041,3.829746 2.96341,1.666404 0.0935,-0.718199 1.72798,1.35865 0.47641,0.604816 0.72033,1.726334 1.10253,2.41149 1.21592,2.182781 2.90757,4.101218 4.93095,5.623463 1.95509,1.470736 4.89327,2.181161 5.89016,4.095386 0.76877,1.476892 1.02784,3.484091 1.64824,5.06076 1.62739,4.135232 3.77661,7.991543 5.92582,11.886404 1.73135,3.138759 3.6252,5.880679 3.81765,9.467463 0.0669,1.248506 -1.12104,8.737605 1.77273,6.459903 0.42897,-0.337556 1.35386,-4.155965 1.54395,-4.803867 0.77114,-2.632748 1.04534,-5.381147 1.39457,-8.086136 0.69442,-5.379528 0.92253,-10.497951 0.46901,-15.916029" />
          </defs>
          <mask
             fill="#ffffff"
             id="react-mask-24">
            <use
               height="100%"
               width="100%"
               y="0"
               x="0"
               id="use179"
               xlink:href="#react-path-26" />
          </mask>
          <g
             id="g182" />
          <g
             mask="url(#react-mask-24)"
             id="Top/Short-Hair/Short-Curly">
            <g
               id="g212"
               transform="translate(-1)">
              <mask
                 fill="#ffffff"
                 id="react-mask-23">
                <use
                   height="100%"
                   width="100%"
                   y="0"
                   x="0"
                   id="use184"
                   xlink:href="#react-path-25" />
              </mask>
              <use
                 height="100%"
                 width="100%"
                 y="0"
                 x="0"
                 xlink:href="#react-path-25"
                 fill-rule="evenodd"
                 fill="#28354b"
                 stroke="none"
                 id="Short-Hair" />
              <g
                 fill="#4a312c"
                 mask="url(#react-mask-23)"
                 id="g192">
                <g
                   id="g190">
                  <rect
                     id="rect188"
                     height="280"
                     width="264"
                     y="0"
                     x="0" />
                </g>
              </g>
              <g
                 stroke-width="1"
                 transform="translate(62,85)"
                 fill="none"
                 id="Top/_Resources/Prescription-02">
                <defs
                   id="defs205">
                  <filter
                     id="react-filter-27"
                     filterUnits="objectBoundingBox"
                     height="1.098"
                     width="1.015"
                     y="-0.024"
                     x="-0.0080000004">
                    <feOffset
                       id="feOffset194"
                       result="shadowOffsetOuter1"
                       in="SourceAlpha"
                       dy="2"
                       dx="0" />
                    <feColorMatrix
                       id="feColorMatrix196"
                       result="shadowMatrixOuter1"
                       in="shadowOffsetOuter1"
                       type="matrix"
                       values="0 0 0 0 0   0 0 0 0 0   0 0 0 0 0  0 0 0 0.2 0" />
                    <feMerge
                       id="feMerge202">
                      <feMergeNode
                         id="feMergeNode198"
                         in="shadowMatrixOuter1" />
                      <feMergeNode
                         id="feMergeNode200"
                         in="SourceGraphic" />
                    </feMerge>
                  </filter>
                </defs>
                <g
                   fill="#252c2f"
                   transform="translate(6,7)"
                   filter="url(#react-filter-27)"
                   id="Wayfarers">
                  <path
                     fill-rule="nonzero"
                     id="Left"
                     d="M 34,41 H 31.24215 C 17.314712,41 9,33.335929 9,20.5 9,10.127 10.817006,0 32.529931,0 h 2.940138 C 57.182994,0 59,10.127 59,20.5 59,32.568643 48.721275,41 34,41 Z M 32.385361,6 C 13,6 13,12.841016 13,21.50155 13,28.571943 16.116254,37 30.970936,37 H 34 C 46.364908,37 55,30.627037 55,21.50155 55,12.841016 55,6 35.614639,6 Z" />
                  <path
                     fill-rule="nonzero"
                     id="Right"
                     d="M 96,41 H 93.24215 C 79.314712,41 71,33.335929 71,20.5 71,10.127 72.817006,0 94.529931,0 h 2.940138 C 119.18299,0 121,10.127 121,20.5 121,32.568643 110.72128,41 96,41 Z M 94.385361,6 C 75,6 75,12.841016 75,21.50155 75,28.571943 78.119483,37 92.970936,37 H 96 c 12.36491,0 21,-6.372963 21,-15.49845 C 117,12.841016 117,6 97.614639,6 Z" />
                  <path
                     fill-rule="nonzero"
                     id="Stuff"
                     d="M 2.9545455,5.7715644 C 3.6459091,5.0962914 11.209546,0 32.5,0 50.351364,0 54.130227,1.8526722 59.850227,4.6518809 l 0.418696,0.2066281 c 0.397678,0.14051 2.431322,0.8313208 4.810138,0.9072862 C 67.246295,5.6727857 69.10002,5.0854019 69.641698,4.8971977 76.170391,1.7220864 82.561097,0 97.5,0 c 21.29045,0 28.85409,5.0962914 29.54546,5.7715644 1.63386,0 2.95454,1.2899446 2.95454,2.8857822 v 2.8857824 c 0,1.595837 -1.32068,2.885782 -2.95454,2.885782 0,0 -6.90146,0 -6.90146,2.885782 0,2.885782 -1.96218,-4.175727 -1.96218,-5.771564 V 8.7324025 C 114.57858,7.3534015 108.12841,4.7861753 97.5,4.7861753 c -11.841535,0 -17.738902,2.0998528 -22.797707,4.1849484 l 0.05657,0.1364049 -0.0025,1.9862324 -2.2172,5.349873 -2.738676,-1.082799 c -0.244594,-0.09671 -0.772351,-0.270443 -1.50414,-0.450931 -2.040079,-0.503162 -4.137442,-0.656335 -5.992267,-0.275596 -0.680494,0.139685 -1.311855,0.349301 -1.891271,0.632424 L 57.770482,16.55787 55.126675,11.396203 55.244091,9.1017571 55.32482,8.9068386 C 50.962053,6.8738637 46.939264,4.7861753 32.5,4.7861753 c -10.627854,0 -17.077869,2.5662644 -20.681818,3.9452918 v 2.8116619 c 0,1.595837 -2.9545456,8.657346 -2.9545456,5.771564 0,-2.885782 -5.9090909,-2.885782 -5.9090909,-2.885782 C 1.3236364,14.428911 0,13.138966 0,11.543129 V 8.6573466 C 0,7.061509 1.3236364,5.7715644 2.9545455,5.7715644 Z" />
                </g>
              </g>
            </g>
          </g>
        </g>
      </g>
    </g>
    <g
       transform="translate(171.45263,537.85159)"
       id="g116"
       stroke="none"
       stroke-width="1"
       fill="none"
       fill-rule="evenodd">
      <g
         transform="translate(-822.45263,-1642.8516)"
         id="Avataaar/Circle">
        <g
           transform="translate(825,1100)"
           id="g113">
          <g
             id="Mask-7" />
          <g
             id="Avataaar-8"
             stroke-width="1"
             fill-rule="evenodd"
             mask="url(#mask-4)">
            <g
               id="Body-4"
               transform="translate(32,36)">
              <mask
                 id="mask167"
                 fill="#ffffff">
                <use
                   height="100%"
                   width="100%"
                   y="0"
                   x="0"
                   xlink:href="#path-5"
                   id="use165" />
              </mask>
              <use
                 height="100%"
                 width="100%"
                 y="0"
                 x="0"
                 fill="#d0c6ac"
                 xlink:href="#path-5"
                 id="use13" />
              <g
                 id="Skin/ðŸ‘¶ðŸ½-03-Brown-7"
                 mask="url(#mask-6-0)"
                 fill="#edb98a">
                <g
                   transform="translate(-32)"
                   id="Color-0">
                  <rect
                     x="0"
                     y="0"
                     width="264"
                     height="244"
                     id="rect15" />
                </g>
              </g>
              <path
                 d="m 156,79 v 23 c 0,30.92795 -25.07205,56 -56,56 -30.927946,0 -56,-25.07205 -56,-56 V 79 94 c 0,30.92795 25.072054,56 56,56 30.92795,0 56,-25.07205 56,-56 z"
                 id="Neck-Shadow-9"
                 fill-opacity="0.1"
                 fill="#000000"
                 mask="url(#mask-6-0)" />
            </g>
            <g
               id="Clothing/Hoodie-8"
               transform="translate(0,170)">
              <defs
                 id="defs22">
                <path
                   d="M 108,13.070886 C 90.081301,15.075938 76.279842,20.551834 76.004203,34.644968 50.146433,45.568093 32,71.164626 32,100.99949 v 0 V 110 h 200 v -9.00051 C 232,71.164626 213.85357,45.568093 187.9958,34.644983 187.72016,20.551834 173.9187,15.075938 156,13.070886 V 32 32 c 0,13.254834 -10.74517,24 -24,24 v 0 C 118.74517,56 108,45.254834 108,32 Z"
                   id="path223" />
              </defs>
              <mask
                 id="mask179"
                 fill="#ffffff">
                <use
                   height="100%"
                   width="100%"
                   y="0"
                   x="0"
                   xlink:href="#react-path-30-0"
                   id="use177" />
              </mask>
              <use
                 height="100%"
                 width="100%"
                 y="0"
                 x="0"
                 id="Hoodie-9"
                 fill="#b7c1db"
                 fill-rule="evenodd"
                 xlink:href="#react-path-30-0" />
              <g
                 id="Color/Palette/Gray-01-8"
                 mask="url(#react-mask-31-6)"
                 fill-rule="evenodd"
                 fill="#25557c">
                <rect
                   id="ðŸ–Color-8"
                   x="0"
                   y="0"
                   width="264"
                   height="110" />
              </g>
              <path
                 d="M 102,61.739053 V 110 H 95 V 58.150262 c 2.203754,1.309796 4.546769,2.510526 7,3.588791 z m 67,-3.588791 V 98.5 c 0,1.933 -1.567,3.5 -3.5,3.5 -1.933,0 -3.5,-1.567 -3.5,-3.5 V 61.739053 c 2.45323,-1.078265 4.79625,-2.278995 7,-3.588791 z"
                 id="Straps-5"
                 fill="#f4f4f4"
                 fill-rule="evenodd"
                 mask="url(#react-mask-31-6)" />
              <path
                 d="M 90.960133,12.724354 C 75.90931,15.571178 65.5,21.242885 65.5,32.307692 65.5,52.020009 98.537681,68 132,68 165.46232,68 198.5,52.020009 198.5,32.307692 198.5,21.242885 188.09069,15.571178 173.03987,12.724354 182.12492,16.07446 188,21.706055 188,31.076923 188,51.468975 160.17879,68 132,68 103.82121,68 76,51.468975 76,31.076923 76,21.706055 81.875079,16.07446 90.960133,12.724354 Z"
                 id="Shadow-6"
                 fill-opacity="0.16"
                 fill="#000000"
                 fill-rule="evenodd"
                 mask="url(#react-mask-31-6)" />
            </g>
            <g
               id="Face-1"
               transform="translate(76,82)"
               fill="#000000">
              <g
                 id="Mouth/Smile"
                 transform="translate(2,52)">
                <defs
                   id="defs34">
                  <path
                     d="M 35.117844,15.128077 C 36.175712,24.619802 44.225987,32 54,32 63.804206,32 71.874008,24.574136 72.891759,15.040055 72.973669,14.272746 72.116743,13 71.042767,13 c -14.894013,0 -26.304846,0 -33.955943,0 -1.080207,0 -2.074818,1.178444 -1.96898,2.128077 z"
                     id="path234" />
                </defs>
                <mask
                   id="mask191"
                   fill="#ffffff">
                  <use
                     height="100%"
                     width="100%"
                     y="0"
                     x="0"
                     xlink:href="#react-path-56"
                     id="use189" />
                </mask>
                <use
                   height="100%"
                   width="100%"
                   y="0"
                   x="0"
                   id="Mouth-5"
                   fill-opacity="0.7"
                   fill="#000000"
                   fill-rule="evenodd"
                   xlink:href="#react-path-56" />
                <rect
                   id="Teeth"
                   fill="#ffffff"
                   fill-rule="evenodd"
                   mask="url(#react-mask-57)"
                   x="39"
                   y="2"
                   width="31"
                   height="16"
                   rx="5" />
                <g
                   id="Tongue"
                   stroke-width="1"
                   fill-rule="evenodd"
                   mask="url(#react-mask-57)"
                   fill="#ff4f6d">
                  <g
                     transform="translate(38,24)"
                     id="g45">
                    <circle
                       cx="11"
                       cy="11"
                       r="11"
                       id="circle41" />
                    <circle
                       cx="21"
                       cy="11"
                       r="11"
                       id="circle43" />
                  </g>
                </g>
              </g>
              <g
                 id="Nose/Default-7"
                 transform="translate(28,40)"
                 fill-opacity="0.16">
                <path
                   d="m 16,8 c 0,4.418278 5.372583,8 12,8 v 0 c 6.627417,0 12,-3.581722 12,-8"
                   id="Nose-2" />
              </g>
              <g
                 id="Eyes/Happy-ðŸ˜"
                 transform="translate(0,8)"
                 fill-opacity="0.6">
                <path
                   d="M 16.160167,22.447312 C 18.006676,18.648508 22.164422,16 26.99758,16 c 4.816097,0 8.961542,2.629842 10.817772,6.407124 0.551408,1.122074 -0.233248,2.040358 -1.024745,1.359899 -2.451101,-2.10724 -5.931891,-3.423235 -9.793027,-3.423235 -3.740374,0 -7.123822,1.234964 -9.560041,3.227853 -0.890746,0.728653 -1.817438,-0.01326 -1.277372,-1.124329 z"
                   id="Squint" />
                <path
                   d="M 74.160167,22.447312 C 76.006676,18.648508 80.164422,16 84.99758,16 c 4.816097,0 8.961542,2.629842 10.817772,6.407124 0.551408,1.122074 -0.233248,2.040358 -1.024745,1.359899 -2.451101,-2.10724 -5.931891,-3.423235 -9.793027,-3.423235 -3.740374,0 -7.123822,1.234964 -9.560041,3.227853 -0.890746,0.728653 -1.817438,-0.01326 -1.277372,-1.124329 z"
                   id="path52" />
              </g>
              <g
                 id="Eyebrow/Natural/Default-Natural"
                 fill-opacity="0.6">
                <path
                   d="M 26.039093,6.2101236 C 20.277555,6.9834622 11.292931,12.005248 12.04426,17.817811 c 0.02469,0.190243 0.31247,0.249536 0.436648,0.09068 2.486496,-3.188159 21.711889,-7.871946 28.713359,-6.893779 0.640785,0.08973 1.063799,-0.571681 0.626783,-0.984508 C 38.076566,6.4948543 31.200379,5.5122482 26.039093,6.2101236"
                   id="Eyebrow-4"
                   transform="rotate(5,27,12)" />
                <path
                   d="M 85.039093,6.2101236 C 79.277555,6.9834622 70.292931,12.005248 71.04426,17.817811 c 0.02469,0.190243 0.31247,0.249536 0.436648,0.09068 2.486496,-3.188159 21.711889,-7.871946 28.713362,-6.893779 0.64078,0.08973 1.0638,-0.571681 0.62678,-0.984508 C 97.076566,6.4948543 90.200379,5.5122482 85.039093,6.2101236"
                   id="path56"
                   transform="matrix(-0.9961947,0.08715574,0.08715574,0.9961947,170.62688,-7.4497303)" />
              </g>
            </g>
            <g
               id="Top-0"
               stroke-width="1"
               fill-rule="evenodd">
              <defs
                 id="defs73">
                <rect
                   id="rect255"
                   x="0"
                   y="0"
                   width="264"
                   height="280" />
                <path
                   d="m 94.251927,52.022115 c 0.123008,-0.0544 -0.182256,-0.0753 -0.915793,-0.0626 0.89153,-0.0018 1.196794,0.019 0.915793,0.0626 M 86.116978,36.301592 c -0.0021,-0.0196 0.01678,0.1511 0,0 M 193.76506,70.765666 c -0.26411,-3.316932 -0.73211,-6.61378 -1.51838,-9.854584 -0.62445,-2.575733 -1.47767,-5.033548 -2.48667,-7.491039 -0.60931,-1.484666 -2.03247,-3.523937 -2.19969,-5.12555 -0.16485,-1.57764 1.0662,-3.325355 1.32896,-5.162156 0.25503,-1.787561 0.21163,-3.667124 -0.1551,-5.438487 -0.83304,-4.022821 -3.59391,-7.763805 -7.85701,-8.812434 -0.95181,-0.234217 -2.96375,0.05442 -3.63631,-0.499856 -0.77113,-0.635592 -1.3081,-2.800879 -2.00622,-3.669391 -1.99042,-2.475957 -5.0948,-4.070443 -8.36875,-3.514543 -2.41097,0.40915 -1.0265,0.90771 -2.83389,-0.511194 -1.00496,-0.788821 -1.75591,-1.99327 -2.73193,-2.847204 -1.46724,-1.282845 -3.15048,-2.381039 -4.89192,-3.28227 -4.55683,-2.358038 -9.7539,-4.072062 -14.84399,-4.9075311 -9.28523,-1.5241886 -19.19523,-0.1953423 -28.19549,2.2193871 -4.47843,1.201534 -8.98714,2.72637 -13.14662,4.742964 -1.783496,0.864625 -2.81302,1.581852 -4.672555,1.808294 -2.92876,0.35667 -5.409037,0.338852 -8.183368,1.58088 -8.5363,3.821972 -12.381201,12.68883 -9.059473,21.174074 0.668181,1.706573 1.572883,3.205169 2.820088,4.58358 1.520734,1.680657 2.070823,1.349903 0.76104,3.282594 -1.958787,2.889965 -3.610062,5.971709 -4.954499,9.171696 -3.528979,8.401665 -4.119441,17.864268 -3.889649,26.824424 0.08041,3.136816 0.214989,6.312182 0.709564,9.418871 0.213643,1.34472 0.27353,3.873156 1.282194,4.870924 0.511734,0.506012 1.240812,0.788175 1.968208,0.586675 1.70948,-0.473616 1.12171,-1.73508 1.16141,-2.906163 0.199849,-5.883595 -0.06998,-11.088512 1.329297,-16.901162 1.033561,-4.294616 2.756163,-8.194984 4.98848,-12.035098 2.838593,-4.884206 5.90294,-9.173639 9.806719,-13.355844 0.917824,-0.983515 1.118346,-1.40044 2.349064,-1.471709 0.931954,-0.05378 2.295232,0.584407 3.20128,0.805342 1.99782,0.486898 3.99933,0.968289 6.03348,1.296127 3.73993,0.602873 7.44319,0.643366 11.21676,0.525124 7.42637,-0.232272 14.8847,-0.753185 22.08497,-2.623354 4.7819,-1.241703 9.02146,-3.470809 13.60183,-5.104817 0.0817,-0.02915 1.22971,-0.847131 1.4309,-0.813764 0.28093,0.04633 1.97696,1.825787 2.26327,2.049961 2.22559,1.745447 4.66684,2.478224 7.07041,3.829746 2.96341,1.666404 0.0935,-0.718199 1.72798,1.35865 0.47641,0.604816 0.72033,1.726334 1.10253,2.41149 1.21592,2.182781 2.90757,4.101218 4.93095,5.623463 1.95509,1.470736 4.89327,2.181161 5.89016,4.095386 0.76877,1.476892 1.02784,3.484091 1.64824,5.06076 1.62739,4.135232 3.77661,7.991543 5.92582,11.886404 1.73135,3.138759 3.6252,5.880679 3.81765,9.467463 0.0669,1.248506 -1.12104,8.737605 1.77273,6.459903 0.42897,-0.337556 1.35386,-4.155965 1.54395,-4.803867 0.77114,-2.632748 1.04534,-5.381147 1.39457,-8.086136 0.69442,-5.379528 0.92253,-10.497951 0.46901,-15.916029"
                   id="path257" />
                <filter
                   x="-0.0080000004"
                   y="-0.02"
                   width="1.015"
                   height="1.08"
                   filterUnits="objectBoundingBox"
                   id="filter269">
                  <feOffset
                     dx="0"
                     dy="2"
                     in="SourceAlpha"
                     result="shadowOffsetOuter1"
                     id="feOffset259" />
                  <feColorMatrix
                     values="0 0 0 0 0   0 0 0 0 0   0 0 0 0 0  0 0 0 0.16 0"
                     type="matrix"
                     in="shadowOffsetOuter1"
                     result="shadowMatrixOuter1"
                     id="feColorMatrix261" />
                  <feMerge
                     id="feMerge267">
                    <feMergeNode
                       in="shadowMatrixOuter1"
                       id="feMergeNode263" />
                    <feMergeNode
                       in="SourceGraphic"
                       id="feMergeNode265" />
                  </feMerge>
                </filter>
              </defs>
              <mask
                 id="mask220"
                 fill="#ffffff">
                <use
                   height="100%"
                   width="100%"
                   y="0"
                   x="0"
                   xlink:href="#react-path-26-4"
                   id="use218" />
              </mask>
              <g
                 id="g78" />
              <g
                 id="Top/Short-Hair/Short-Curly-3"
                 mask="url(#react-mask-24-2)">
                <g
                   transform="translate(-1)"
                   id="g108">
                  <mask
                     id="mask225"
                     fill="#ffffff">
                    <use
                       height="100%"
                       width="100%"
                       y="0"
                       x="0"
                       xlink:href="#react-path-25-7"
                       id="use223" />
                  </mask>
                  <use
                     height="100%"
                     width="100%"
                     y="0"
                     x="0"
                     id="Short-Hair-0"
                     stroke="none"
                     fill="#28354b"
                     fill-rule="evenodd"
                     xlink:href="#react-path-25-7" />
                  <g
                     id="g88"
                     mask="url(#react-mask-23-3)"
                     fill="#4a312c">
                    <g
                       id="g86">
                      <rect
                         x="0"
                         y="0"
                         width="264"
                         height="280"
                         id="rect84" />
                    </g>
                  </g>
                  <g
                     id="Top/_Resources/Prescription-02-9"
                     fill="none"
                     transform="translate(62,85)"
                     stroke-width="1">
                    <defs
                       id="defs101">
                      <filter
                         x="-0.0080000004"
                         y="-0.024"
                         width="1.015"
                         height="1.098"
                         filterUnits="objectBoundingBox"
                         id="filter291">
                        <feOffset
                           dx="0"
                           dy="2"
                           in="SourceAlpha"
                           result="shadowOffsetOuter1"
                           id="feOffset281" />
                        <feColorMatrix
                           values="0 0 0 0 0   0 0 0 0 0   0 0 0 0 0  0 0 0 0.2 0"
                           type="matrix"
                           in="shadowOffsetOuter1"
                           result="shadowMatrixOuter1"
                           id="feColorMatrix283" />
                        <feMerge
                           id="feMerge289">
                          <feMergeNode
                             in="shadowMatrixOuter1"
                             id="feMergeNode285" />
                          <feMergeNode
                             in="SourceGraphic"
                             id="feMergeNode287" />
                        </feMerge>
                      </filter>
                    </defs>
                    <g
                       id="Wayfarers-5"
                       filter="url(#react-filter-27)"
                       transform="translate(6,7)"
                       fill="#252c2f"
                       style="filter:url(#react-filter-27-7)">
                      <path
                         d="M 34,41 H 31.24215 C 17.314712,41 9,33.335929 9,20.5 9,10.127 10.817006,0 32.529931,0 h 2.940138 C 57.182994,0 59,10.127 59,20.5 59,32.568643 48.721275,41 34,41 Z M 32.385361,6 C 13,6 13,12.841016 13,21.50155 13,28.571943 16.116254,37 30.970936,37 H 34 C 46.364908,37 55,30.627037 55,21.50155 55,12.841016 55,6 35.614639,6 Z"
                         id="Left-0"
                         fill-rule="nonzero" />
                      <path
                         d="M 96,41 H 93.24215 C 79.314712,41 71,33.335929 71,20.5 71,10.127 72.817006,0 94.529931,0 h 2.940138 C 119.18299,0 121,10.127 121,20.5 121,32.568643 110.72128,41 96,41 Z M 94.385361,6 C 75,6 75,12.841016 75,21.50155 75,28.571943 78.119483,37 92.970936,37 H 96 c 12.36491,0 21,-6.372963 21,-15.49845 C 117,12.841016 117,6 97.614639,6 Z"
                         id="Right-8"
                         fill-rule="nonzero" />
                      <path
                         d="M 2.9545455,5.7715644 C 3.6459091,5.0962914 11.209546,0 32.5,0 50.351364,0 54.130227,1.8526722 59.850227,4.6518809 l 0.418696,0.2066281 c 0.397678,0.14051 2.431322,0.8313208 4.810138,0.9072862 C 67.246295,5.6727857 69.10002,5.0854019 69.641698,4.8971977 76.170391,1.7220864 82.561097,0 97.5,0 c 21.29045,0 28.85409,5.0962914 29.54546,5.7715644 1.63386,0 2.95454,1.2899446 2.95454,2.8857822 v 2.8857824 c 0,1.595837 -1.32068,2.885782 -2.95454,2.885782 0,0 -6.90146,0 -6.90146,2.885782 0,2.885782 -1.96218,-4.175727 -1.96218,-5.771564 V 8.7324025 C 114.57858,7.3534015 108.12841,4.7861753 97.5,4.7861753 c -11.841535,0 -17.738902,2.0998528 -22.797707,4.1849484 l 0.05657,0.1364049 -0.0025,1.9862324 -2.2172,5.349873 -2.738676,-1.082799 c -0.244594,-0.09671 -0.772351,-0.270443 -1.50414,-0.450931 -2.040079,-0.503162 -4.137442,-0.656335 -5.992267,-0.275596 -0.680494,0.139685 -1.311855,0.349301 -1.891271,0.632424 L 57.770482,16.55787 55.126675,11.396203 55.244091,9.1017571 55.32482,8.9068386 C 50.962053,6.8738637 46.939264,4.7861753 32.5,4.7861753 c -10.627854,0 -17.077869,2.5662644 -20.681818,3.9452918 v 2.8116619 c 0,1.595837 -2.9545456,8.657346 -2.9545456,5.771564 0,-2.885782 -5.9090909,-2.885782 -5.9090909,-2.885782 C 1.3236364,14.428911 0,13.138966 0,11.543129 V 8.6573466 C 0,7.061509 1.3236364,5.7715644 2.9545455,5.7715644 Z"
                         id="Stuff-7"
                         fill-rule="nonzero" />
                    </g>
                  </g>
                </g>
              </g>
            </g>
          </g>
        </g>
      </g>
    </g>
  </g>
</svg>
