<?xml version="1.0" standalone="no"?><svg xmlns="http://www.w3.org/2000/svg" viewBox="0 0 1440 320"><path fill="#273036" fill-opacity="1" d="M0,192L14.1,176C28.2,160,56,128,85,138.7C112.9,149,141,203,169,234.7C197.6,267,226,277,254,272C282.4,267,311,245,339,218.7C367.1,192,395,160,424,160C451.8,160,480,192,508,213.3C536.5,235,565,245,593,240C621.2,235,649,213,678,213.3C705.9,213,734,235,762,240C790.6,245,819,235,847,234.7C875.3,235,904,245,932,218.7C960,192,988,128,1016,128C1044.7,128,1073,192,1101,229.3C1129.4,267,1158,277,1186,277.3C1214.1,277,1242,267,1271,229.3C1298.8,192,1327,128,1355,112C1383.5,96,1412,128,1426,144L1440,160L1440,320L1425.9,320C1411.8,320,1384,320,1355,320C1327.1,320,1299,320,1271,320C1242.4,320,1214,320,1186,320C1157.6,320,1129,320,1101,320C1072.9,320,1045,320,1016,320C988.2,320,960,320,932,320C903.5,320,875,320,847,320C818.8,320,791,320,762,320C734.1,320,706,320,678,320C649.4,320,621,320,593,320C564.7,320,536,320,508,320C480,320,452,320,424,320C395.3,320,367,320,339,320C310.6,320,282,320,254,320C225.9,320,198,320,169,320C141.2,320,113,320,85,320C56.5,320,28,320,14,320L0,320Z"></path></svg>